<?xml version="1.0" encoding="utf-8"?><svg xml:space="preserve" viewBox="0 0 100 100" y="0" x="0" xmlns="http://www.w3.org/2000/svg" id="圖層_1" version="1.1" width="200px" height="200px" xmlns:xlink="http://www.w3.org/1999/xlink" style="width:100%;height:100%;background-size:initial;background-repeat-y:initial;background-repeat-x:initial;background-position-y:initial;background-position-x:initial;background-origin:initial;background-image:initial;background-color:rgb(255, 255, 255);background-clip:initial;background-attachment:initial;animation-play-state:paused" ><g class="ldl-scale" style="transform-origin:50% 50%;transform:rotate(0deg) scale(0.8, 0.8);animation-play-state:paused" ><path stroke-miterlimit="10" stroke-width="4" stroke="#333" fill="#e0e0e0" d="M81.902 75.706H14.527a4.558 4.558 0 0 1-4.558-4.558V21.006a4.558 4.558 0 0 1 4.558-4.558h67.376a4.558 4.558 0 0 1 4.558 4.558v50.143a4.56 4.56 0 0 1-4.559 4.557z" style="stroke:rgb(51, 51, 51);fill:rgb(224, 224, 224);animation-play-state:paused" ></path>
<path d="M16.215 23.077h64v46h-64z" fill="#fff" style="fill:rgb(255, 255, 255);animation-play-state:paused" ></path>
<path stroke-miterlimit="10" stroke-width="2" stroke="#333" fill="#333" d="M17.215 67.997h62v-4.739a6.733 6.733 0 0 0-1.024-3.569l-11-17.581a2.626 2.626 0 0 0-4.262-.266l-8.271 10.155L41.824 34.73a2.626 2.626 0 0 0-4.158-.074L18.689 58.381a6.732 6.732 0 0 0-1.474 4.204v5.412z" style="stroke:rgb(51, 51, 51);fill:rgb(51, 51, 51);animation-play-state:paused" ></path>
<g style="animation-play-state:paused" ><circle stroke-miterlimit="10" stroke-width="4" stroke="#333" fill="#fff" r="14.738" cy="70.814" cx="77.293" style="stroke:rgb(51, 51, 51);fill:rgb(255, 255, 255);animation-play-state:paused" ></circle>
<path fill="#849b87" d="M71.685 66.351l-2.03-.626a9.131 9.131 0 0 0-1.362 3.285l1.877.993c-.03.267-.049.536-.049.811s.019.544.049.811l-1.877.993a9.113 9.113 0 0 0 1.362 3.285l2.03-.626a7.21 7.21 0 0 0 1.145 1.145l-.626 2.03a9.113 9.113 0 0 0 3.285 1.362l.993-1.877c.266.03.536.049.811.049s.544-.019.811-.049l.993 1.877a9.113 9.113 0 0 0 3.285-1.362l-.626-2.03a7.21 7.21 0 0 0 1.145-1.145l2.03.626a9.131 9.131 0 0 0 1.362-3.285l-1.877-.993c.03-.267.049-.536.049-.811s-.019-.544-.049-.811l1.877-.993a9.113 9.113 0 0 0-1.362-3.285l-2.03.626a7.21 7.21 0 0 0-1.145-1.145l.626-2.03a9.113 9.113 0 0 0-3.285-1.362l-.993 1.877a7.223 7.223 0 0 0-.811-.049c-.275 0-.544.019-.811.049l-.993-1.877a9.113 9.113 0 0 0-3.285 1.362l.626 2.03a7.127 7.127 0 0 0-1.145 1.145zm5.608-.701a5.163 5.163 0 1 1 0 10.326 5.163 5.163 0 0 1 0-10.326z" style="fill:rgb(132, 155, 135);animation-play-state:paused" ></path></g>
<metadata xmlns:d="https://loading.io/stock/" style="animation-play-state:paused" ><d:name style="animation-play-state:paused" >photo</d:name>
<d:tags style="animation-play-state:paused" >retouch,edit,exif,lightroom,post edit,config,setting,loading,photo,camera</d:tags>
<d:license style="animation-play-state:paused" >by</d:license>
<d:slug style="animation-play-state:paused" >bja08h</d:slug></metadata></g><!-- generated by https://loading.io/ --></svg>